<svg width="202" height="52" viewBox="0 0 202 52" fill="none" xmlns="http://www.w3.org/2000/svg">
<path d="M78.4176 35.4952C76.5827 35.4952 74.9456 35.0628 73.5064 34.1979C72.0852 33.3147 70.9789 32.1003 70.1873 30.5546C69.3958 29.009 69 27.2425 69 25.2553C69 23.268 69.4048 21.5107 70.2143 19.9835C71.0418 18.4378 72.1752 17.2418 73.6144 16.3954C75.0536 15.5306 76.6816 15.0981 78.4986 15.0981C79.8658 15.0981 81.1341 15.3558 82.3034 15.871C83.4728 16.3678 84.4712 17.0762 85.2987 17.9962C86.1443 18.9163 86.7649 20.0019 87.1607 21.2531L85.4067 22.026C84.9209 20.4251 84.0664 19.1739 82.8431 18.2722C81.6198 17.3522 80.1627 16.8922 78.4716 16.8922C76.9965 16.8922 75.6922 17.2326 74.5588 17.9134C73.4255 18.5943 72.535 19.5695 71.8874 20.8391C71.2577 22.1088 70.9429 23.5716 70.9429 25.2277C70.9429 26.9205 71.2487 28.411 71.8604 29.699C72.49 30.9686 73.3715 31.9531 74.5049 32.6523C75.6382 33.3515 76.9515 33.7011 78.4446 33.7011C79.9738 33.7011 81.287 33.3239 82.3844 32.5695C83.4998 31.8151 84.3633 30.711 84.9749 29.2574L86.648 30.1406C85.9284 31.8519 84.858 33.1767 83.4368 34.1151C82.0156 35.0352 80.3426 35.4952 78.4176 35.4952Z" fill="#1A2E25"/>
<path d="M90.5637 21.1427H92.4256V35.0812H90.5637V21.1427ZM91.5082 18.1894C91.0944 18.1894 90.7346 18.0422 90.4288 17.7478C90.1409 17.4534 89.997 17.0854 89.997 16.6438C89.997 16.2206 90.1409 15.8618 90.4288 15.5674C90.7346 15.2729 91.0944 15.1257 91.5082 15.1257C91.9039 15.1257 92.2547 15.2729 92.5606 15.5674C92.8664 15.8618 93.0193 16.2206 93.0193 16.6438C93.0193 17.0854 92.8664 17.4534 92.5606 17.7478C92.2727 18.0422 91.9219 18.1894 91.5082 18.1894Z" fill="#1A2E25"/>
<path d="M96.8355 21.1427H98.6435V23.5164H98.6975C99.2372 22.6516 99.9388 21.9708 100.802 21.4739C101.684 20.9771 102.673 20.7287 103.771 20.7287C105.012 20.7287 106.1 21.0415 107.036 21.6671C107.989 22.2928 108.727 23.1668 109.248 24.2892C109.788 25.4117 110.058 26.7181 110.058 28.2085C110.058 29.6622 109.797 30.941 109.275 32.0451C108.754 33.1491 108.007 34.0047 107.036 34.6119C106.082 35.2008 104.976 35.4952 103.717 35.4952C102.979 35.4952 102.286 35.3756 101.639 35.1364C100.991 34.9156 100.415 34.6027 99.9118 34.1979C99.4081 33.7747 99.0213 33.2963 98.7514 32.7627H98.6975V41.0981H96.8355V21.1427ZM103.528 33.7839C104.463 33.7839 105.282 33.5631 105.983 33.1215C106.685 32.6615 107.225 32.0083 107.602 31.1618C107.998 30.3154 108.196 29.331 108.196 28.2085C108.196 27.0309 107.998 26.0097 107.602 25.1449C107.225 24.28 106.676 23.6176 105.956 23.1576C105.237 22.6792 104.409 22.44 103.474 22.44C102.52 22.44 101.684 22.67 100.964 23.13C100.245 23.5716 99.6869 24.2248 99.2911 25.0897C98.8953 25.9361 98.6975 26.9481 98.6975 28.1257C98.6975 29.3034 98.9043 30.3246 99.3181 31.1894C99.7319 32.0359 100.299 32.6799 101.018 33.1215C101.756 33.5631 102.592 33.7839 103.528 33.7839Z" fill="#1A2E25"/>
<path d="M113.543 15.2361H115.378V23.7096H115.432C115.935 22.7344 116.628 21.9984 117.51 21.5015C118.391 20.9863 119.363 20.7287 120.424 20.7287C121.377 20.7287 122.232 20.9495 122.987 21.3911C123.743 21.8144 124.337 22.4308 124.768 23.2404C125.2 24.05 125.416 25.0161 125.416 26.1385V35.0812H123.581V26.5249C123.581 25.6233 123.419 24.8688 123.095 24.2616C122.79 23.6544 122.367 23.2036 121.827 22.9092C121.287 22.6148 120.658 22.4676 119.938 22.4676C119.075 22.4676 118.292 22.6884 117.591 23.13C116.907 23.5532 116.367 24.1696 115.971 24.9792C115.576 25.7705 115.378 26.6997 115.378 27.7669V35.0812H113.543V15.2361Z" fill="#1A2E25"/>
<path d="M135.419 35.4952C134.052 35.4952 132.855 35.2008 131.83 34.6119C130.822 34.0047 130.049 33.1583 129.509 32.0727C128.969 30.9686 128.7 29.6806 128.7 28.2085C128.7 26.6997 128.978 25.3841 129.536 24.2616C130.094 23.1208 130.876 22.2468 131.884 21.6395C132.891 21.0323 134.069 20.7287 135.419 20.7287C136.804 20.7287 137.982 21.0415 138.954 21.6671C139.943 22.2744 140.69 23.1116 141.193 24.1788C141.715 25.2461 141.976 26.4513 141.976 27.7945C141.976 27.8865 141.976 27.9877 141.976 28.0981C141.976 28.1901 141.967 28.2914 141.949 28.4018H130.13V26.8837H139.925C139.907 26.0557 139.718 25.3105 139.358 24.648C139.017 23.9672 138.513 23.4336 137.847 23.0472C137.182 22.6424 136.381 22.44 135.446 22.44C134.438 22.44 133.566 22.6608 132.828 23.1024C132.109 23.5256 131.551 24.1604 131.155 25.0068C130.759 25.8533 130.561 26.8745 130.561 28.0705C130.561 29.2482 130.759 30.2694 131.155 31.1342C131.569 31.9807 132.136 32.6339 132.855 33.0939C133.593 33.5539 134.447 33.7839 135.419 33.7839C136.39 33.7839 137.254 33.5447 138.009 33.0663C138.765 32.5695 139.35 31.8427 139.763 30.8858L141.382 31.7967C140.771 33.0479 139.952 33.9771 138.927 34.5843C137.919 35.1916 136.75 35.4952 135.419 35.4952Z" fill="#1A2E25"/>
<path d="M145.271 21.1427H147.079V23.2956H147.16C147.538 22.4676 148.041 21.8328 148.671 21.3911C149.301 20.9495 150.038 20.7287 150.884 20.7287C151.387 20.7287 151.846 20.8207 152.26 21.0047C152.674 21.1703 153.015 21.4371 153.285 21.8052C153.573 22.1732 153.753 22.6516 153.825 23.2404L152.206 24.234C152.116 23.6084 151.891 23.1576 151.531 22.8816C151.19 22.6056 150.767 22.4676 150.263 22.4676C149.633 22.4676 149.076 22.67 148.59 23.0748C148.122 23.4796 147.762 24.0408 147.511 24.7584C147.259 25.4761 147.133 26.2857 147.133 27.1873V35.0812H145.271V21.1427Z" fill="#1A2E25"/>
<path d="M165.405 35.4952C163.552 35.4952 161.915 35.072 160.494 34.2255C159.091 33.3607 157.993 32.1647 157.202 30.6374C156.428 29.0918 156.041 27.3253 156.041 25.3381C156.041 23.3508 156.437 21.5843 157.229 20.0387C158.02 18.4746 159.127 17.2602 160.548 16.3954C161.969 15.5306 163.588 15.0981 165.405 15.0981C167.204 15.0981 168.805 15.5306 170.208 16.3954C171.629 17.2602 172.736 18.4654 173.527 20.0111C174.337 21.5567 174.742 23.3048 174.742 25.2553C174.742 27.2241 174.346 28.9814 173.554 30.527C172.763 32.0727 171.656 33.2871 170.235 34.1703C168.832 35.0536 167.222 35.4952 165.405 35.4952ZM165.405 33.7011C166.88 33.7011 168.175 33.3515 169.291 32.6523C170.424 31.9531 171.297 30.9686 171.908 29.699C172.52 28.411 172.826 26.9389 172.826 25.2829C172.826 23.6268 172.52 22.164 171.908 20.8943C171.297 19.6247 170.433 18.6403 169.318 17.941C168.202 17.2418 166.898 16.8922 165.405 16.8922C163.894 16.8922 162.581 17.2418 161.465 17.941C160.35 18.6403 159.486 19.6247 158.875 20.8943C158.281 22.164 157.984 23.6268 157.984 25.2829C157.984 26.9389 158.281 28.411 158.875 29.699C159.486 30.9686 160.35 31.9531 161.465 32.6523C162.599 33.3515 163.912 33.7011 165.405 33.7011Z" fill="#1A2E25"/>
<path d="M177.063 21.1427H178.898L182.54 32.6523H182.621L186.318 21.0599H188.072L191.904 32.6523H192.012L195.655 21.1427H197.409L192.984 35.0812H190.879L187.236 24.1236H187.101L183.593 35.0812H181.461L177.063 21.1427Z" fill="#1A2E25"/>
<path d="M200.138 15.2361H202V35.0812H200.138V15.2361Z" fill="#1A2E25"/>
<path d="M36.613 25.9129H55.5122C55.5122 24.8814 55.4592 23.8677 55.3664 22.8628L36.5467 24.628C36.5864 25.0504 36.613 25.4816 36.613 25.9129Z" fill="#1A2E25"/>
<path d="M35.9916 22.3289L50.06 17.4069C49.3661 15.4061 48.4379 13.5164 47.3064 11.7734L34.838 19.9502C35.3109 20.6838 35.6999 21.4841 35.9916 22.3289Z" fill="#1A2E25"/>
<path d="M36.5524 27.2024L55.3721 28.9676C55.4649 27.9628 55.5179 26.9445 55.5179 25.9175H36.6187C36.6187 26.3488 36.5877 26.7801 36.5524 27.2024Z" fill="#1A2E25"/>
<path d="M34.8323 31.8796L47.3006 40.0564C48.4321 38.3134 49.3603 36.4237 50.0542 34.4229L35.9903 29.5054C35.6985 30.3457 35.3096 31.1461 34.8323 31.8796Z" fill="#1A2E25"/>
<path d="M28.6848 36.4283C27.7831 36.6817 26.8373 36.8285 25.8605 36.8418C25.8207 36.8418 25.7765 36.8462 25.7367 36.8462C24.6848 36.8462 23.6727 36.6862 22.7091 36.406C22.4705 36.3349 22.2362 36.2549 22.0064 36.1704C21.9401 36.1482 21.8738 36.1215 21.8119 36.0993C21.5954 36.0148 21.3832 35.9214 21.171 35.8236C21.1003 35.788 21.0296 35.7569 20.9589 35.7213C20.7512 35.6191 20.5479 35.5123 20.3445 35.3968C20.2915 35.3656 20.2384 35.3301 20.1854 35.2989C19.5534 34.921 18.9655 34.4808 18.4263 33.9828C18.3512 33.9117 18.2716 33.845 18.2009 33.7738C18.0639 33.6449 17.9357 33.5071 17.8075 33.3693C17.7147 33.2714 17.6263 33.1691 17.5379 33.0713C17.423 32.938 17.3125 32.8045 17.2064 32.6667C17.1092 32.5467 17.0208 32.4222 16.9324 32.2932C16.8396 32.1643 16.7468 32.0353 16.6584 31.8976C16.5523 31.733 16.4551 31.5641 16.3578 31.3951C16.296 31.2884 16.2297 31.1861 16.1722 31.075C16.0264 30.7993 15.8893 30.5192 15.7656 30.2302C15.7214 30.1279 15.686 30.0212 15.6418 29.9145C15.5623 29.71 15.4871 29.5099 15.4164 29.3009C15.3766 29.1808 15.3457 29.0608 15.3103 28.9407C15.2529 28.7363 15.1998 28.5317 15.1512 28.3183C15.1247 28.1982 15.0982 28.0782 15.0761 27.9537C15.0319 27.7269 15.0009 27.4957 14.97 27.2601C14.9568 27.1533 14.939 27.0511 14.9302 26.9444C14.8993 26.602 14.8772 26.2596 14.8772 25.9084C14.8772 25.5571 14.8993 25.2148 14.9302 24.8725C14.939 24.7657 14.9568 24.6634 14.97 24.5568C14.9965 24.3255 15.0319 24.0943 15.0761 23.8631C15.0982 23.7387 15.1247 23.6186 15.1512 23.4985C15.1998 23.2895 15.2529 23.0806 15.3103 22.8761C15.3457 22.756 15.381 22.6315 15.4164 22.5159C15.4827 22.3069 15.5623 22.1024 15.6418 21.9023C15.6816 21.7956 15.7214 21.6889 15.7656 21.5866C15.8893 21.2976 16.0219 21.0175 16.1722 20.7419C16.2297 20.6351 16.296 20.5284 16.3578 20.4217C16.4551 20.2527 16.5523 20.0838 16.6584 19.9193C16.7468 19.7859 16.8396 19.657 16.9324 19.5235C17.0208 19.3991 17.1136 19.2746 17.2064 19.1501C17.3125 19.0122 17.423 18.8788 17.5379 18.7455C17.6263 18.6432 17.7192 18.5454 17.8075 18.4476C17.9357 18.3097 18.0639 18.1719 18.2009 18.043C18.2761 17.9718 18.3512 17.9051 18.4263 17.834C18.9655 17.3405 19.5534 16.8958 20.1854 16.5179C20.2384 16.4867 20.2915 16.4512 20.3445 16.4201C20.5434 16.3045 20.7512 16.1977 20.9589 16.0955C21.0296 16.0599 21.1003 16.0243 21.171 15.9932C21.3832 15.8954 21.5954 15.802 21.8119 15.7176C21.8782 15.6909 21.9445 15.6686 22.0064 15.6464C22.2362 15.5619 22.4705 15.4775 22.7091 15.4108C23.6727 15.1306 24.6848 14.9706 25.7367 14.9706C25.7765 14.9706 25.8207 14.9706 25.8605 14.9706C26.8373 14.9839 27.7831 15.1306 28.6848 15.3841L32.729 0.973734C30.5411 0.355701 28.2384 0.0133385 25.8605 0C25.8207 0 25.7765 0 25.7367 0C24.7113 0 23.7036 0.0666935 22.7091 0.182297C22.6517 0.186743 22.5942 0.195635 22.5368 0.200082C22.2053 0.240098 21.8782 0.284561 21.5511 0.337916C21.5025 0.346809 21.4539 0.355701 21.4053 0.364594C19.1246 0.755864 16.9457 1.44504 14.9081 2.39654C14.8639 2.41877 14.8197 2.43655 14.7755 2.45434C14.4926 2.58773 14.2142 2.73001 13.9402 2.87229C13.8606 2.9123 13.781 2.95232 13.7015 2.99678C13.4451 3.13462 13.1977 3.27245 12.9457 3.41918C12.8485 3.47698 12.7513 3.53034 12.654 3.58814C12.4198 3.72597 12.1899 3.8727 11.9601 4.01943C11.854 4.08612 11.7479 4.15726 11.6419 4.22396C11.4253 4.36624 11.2087 4.51741 10.9966 4.66413C10.8817 4.74417 10.7712 4.8242 10.6607 4.90423C10.4573 5.05096 10.254 5.20214 10.0552 5.35775C9.9402 5.44668 9.8253 5.54005 9.7104 5.62898C9.51594 5.78459 9.32589 5.94024 9.14023 6.09581C9.02533 6.19362 8.91043 6.29592 8.79547 6.39816C8.61428 6.55823 8.4375 6.71386 8.26071 6.87836C8.14135 6.98952 8.02644 7.10067 7.91154 7.21183C7.74356 7.3719 7.57559 7.53645 7.41207 7.70094C7.29276 7.82096 7.1778 7.94547 7.0629 8.06998C6.90819 8.23447 6.75354 8.39902 6.60324 8.56352C6.48393 8.69688 6.36457 8.83917 6.24967 8.97703C6.10823 9.14152 5.96679 9.30158 5.83419 9.46608C5.69718 9.63506 5.569 9.80404 5.43641 9.9774C5.25962 10.2042 5.08724 10.4354 4.91486 10.671C4.74691 10.9022 4.58337 11.129 4.42426 11.3646C4.33586 11.4936 4.25631 11.627 4.16791 11.7604C4.03532 11.9649 3.8983 12.1739 3.77013 12.3828C3.68615 12.5251 3.60217 12.6674 3.51819 12.8141C3.39886 13.0187 3.27952 13.2232 3.16461 13.4322C3.08505 13.5789 3.00549 13.7301 2.93036 13.8812C2.81986 14.0902 2.71378 14.2992 2.60771 14.5126C2.53257 14.6638 2.46185 14.8194 2.39114 14.9706C2.28948 15.184 2.19224 15.4019 2.09943 15.6197C2.03313 15.7754 1.96683 15.9354 1.90495 16.091C1.81656 16.3133 1.72816 16.5312 1.64418 16.758C1.5823 16.918 1.52485 17.0781 1.47181 17.2382C1.39225 17.465 1.31711 17.6917 1.24198 17.9229C1.18894 18.083 1.14032 18.2475 1.0917 18.412C1.02098 18.6432 0.954688 18.8788 0.89281 19.1145C0.848611 19.279 0.804412 19.4391 0.764634 19.6036C0.702756 19.8437 0.649714 20.0882 0.596679 20.3328C0.56132 20.4928 0.525962 20.6529 0.495023 20.8175C0.446404 21.0708 0.402206 21.3288 0.358007 21.5822C0.331488 21.7378 0.304969 21.8979 0.27845 22.0535C0.238671 22.3247 0.207733 22.5959 0.176794 22.8716C0.159114 23.0183 0.141435 23.1651 0.123756 23.3118C0.0928167 23.6186 0.0707177 23.9298 0.0530381 24.2411C0.0441984 24.3566 0.0353587 24.4678 0.0309389 24.5834C0.00883968 25.0102 0 25.4415 0 25.8773C0 26.313 0.0132596 26.7399 0.0309389 27.1667C0.0397786 27.3045 0.0530381 27.4379 0.057458 27.5758C0.0751376 27.8648 0.0928167 28.1493 0.123756 28.4339C0.141435 28.6073 0.163534 28.7762 0.185633 28.9452C0.216572 29.1898 0.243091 29.4388 0.27845 29.6833C0.304969 29.8701 0.340328 30.0523 0.371267 30.2346C0.411045 30.4614 0.446404 30.6882 0.490603 30.9149C0.525962 31.1061 0.57016 31.2973 0.609936 31.4885C0.658556 31.7019 0.702756 31.9108 0.755791 32.1243C0.804412 32.3199 0.857447 32.5155 0.910489 32.7112C0.963524 32.9113 1.02098 33.1114 1.07844 33.307C1.1359 33.5071 1.19778 33.7027 1.26408 33.9028C1.32596 34.0895 1.38783 34.2763 1.45413 34.463C1.52485 34.6675 1.59557 34.8677 1.6707 35.0677C1.737 35.2411 1.80771 35.419 1.87401 35.5879C1.95799 35.7925 2.04197 35.997 2.13037 36.2015C2.20108 36.3616 2.2718 36.5216 2.34694 36.6817C2.44417 36.8907 2.54141 37.1041 2.64307 37.3087C2.71378 37.4509 2.7845 37.5887 2.85522 37.7266C2.97014 37.9489 3.08063 38.1667 3.19997 38.3846C3.26185 38.4958 3.32372 38.6025 3.3856 38.7137C3.52261 38.9538 3.65963 39.1983 3.80548 39.434C3.83643 39.4829 3.86736 39.5318 3.8983 39.5807C4.87951 41.1636 6.02867 42.6308 7.31484 43.9558C7.32811 43.9692 7.33692 43.9825 7.35019 43.9958C7.59772 44.2492 7.84966 44.4983 8.1104 44.7428C8.13694 44.7651 8.15902 44.7917 8.18556 44.814C8.4419 45.0541 8.69824 45.2852 8.96345 45.5165C8.98999 45.5431 9.02087 45.5654 9.04741 45.592C9.31262 45.8188 9.58223 46.0411 9.86064 46.259C9.88718 46.2812 9.91813 46.3034 9.94466 46.3256C10.2231 46.5435 10.5104 46.7569 10.7976 46.966C10.8198 46.9793 10.8375 46.9971 10.8595 47.0104C11.1601 47.2238 11.4606 47.4328 11.7701 47.6329C11.7701 47.6373 11.7833 47.6418 11.7877 47.6462C15.8098 50.2606 20.5965 51.7857 25.7412 51.7857C25.781 51.7857 25.8251 51.7812 25.8649 51.7812C28.2472 51.7635 30.5455 51.4255 32.7334 50.8075L28.6848 36.4283Z" fill="#1A2E25"/>
<path d="M31.0624 35.437L38.364 48.4867C40.1628 47.4641 41.8291 46.2325 43.3275 44.8185L33.153 33.8896C32.521 34.481 31.8226 35.0057 31.0624 35.437Z" fill="#1A2E25"/>
<path d="M33.1619 17.9453L43.3187 6.9986C41.8071 5.58022 40.1365 4.3575 38.342 3.34375L31.058 16.4069C31.8183 16.8337 32.5255 17.3451 33.1619 17.9453Z" fill="#1A2E25"/>
</svg>
